<svg width="21" height="21" viewBox="0 0 21 21" fill="none" xmlns="http://www.w3.org/2000/svg">
<path d="M0 10.499C0 8.98434 0.865053 7.67515 2.1274 7.03131C1.689 5.68493 2.0041 4.14481 3.07465 3.07436C4.1452 2.00391 5.68351 1.68885 7.03197 2.1272C7.67586 0.864971 8.98714 0 10.5 0C12.0129 0 13.3241 0.864971 13.968 2.1272C15.3145 1.68885 16.8548 2.00391 17.9254 3.07436C18.9959 4.14481 19.311 5.68297 18.8726 7.03131C20.135 7.67515 21 8.9863 21 10.499C21 12.0117 20.135 13.3229 18.8726 13.9667C19.2621 15.1683 19.0546 16.5205 18.2463 17.5597C18.5751 18.3268 19.219 19.3836 20.4168 19.9941C20.7319 20.1546 20.6047 20.6282 20.2504 20.6047C18.9665 20.5127 17.3754 20.1252 16.0837 18.9569C15.387 19.1233 14.653 19.0959 13.968 18.8728C13.3241 20.135 12.0129 21 10.5 21C8.98714 21 7.67586 20.135 7.03197 18.8728C5.68546 19.3112 4.1452 18.9961 3.07465 17.9256C2.0041 16.8552 1.689 15.317 2.1274 13.9687C0.865053 13.3249 0 12.0137 0 10.501V10.499Z" fill="#A7D9D0"/>
</svg>
