<svg width="39" height="40" viewBox="0 0 39 40" fill="none" xmlns="http://www.w3.org/2000/svg">
<path fill-rule="evenodd" clip-rule="evenodd" d="M8.90486 26.0446C9.39494 26.678 9.27879 27.5887 8.64545 28.0788C7.49986 28.9652 6.76665 30.3488 6.76665 31.9043C6.76665 32.2077 6.79443 32.5037 6.8474 32.7902C7.13391 32.8432 7.42992 32.871 7.73332 32.871C9.28883 32.871 10.6724 32.1378 11.5589 30.9922C12.0489 30.3589 12.9597 30.2427 13.593 30.7328C14.2263 31.2229 14.3425 32.1336 13.8524 32.7669C12.4404 34.5917 10.2242 35.771 7.73332 35.771C6.84405 35.771 5.98689 35.6203 5.18789 35.3419C4.76994 35.1962 4.4414 34.8677 4.29576 34.4498C4.01734 33.6507 3.86665 32.7936 3.86665 31.9043C3.86665 29.4134 5.04594 27.1972 6.87072 25.7852C7.50407 25.2952 8.41478 25.4113 8.90486 26.0446Z" fill="#FCCF51"/>
<path fill-rule="evenodd" clip-rule="evenodd" d="M11.1212 24.171C12.3871 25.7904 13.8472 27.2505 15.4667 28.5164V36.2543C15.4667 37.0551 16.1158 37.7043 16.9166 37.7043C22.2554 37.7043 26.5833 33.3764 26.5833 28.0377C26.5833 27.0898 26.4465 26.1721 26.191 25.3042C32.5702 20.7484 36.7333 13.2796 36.7333 4.83766C36.7333 4.66818 36.7316 4.49906 36.7283 4.33033C36.7129 3.55203 36.0856 2.92478 35.3073 2.90935C35.1386 2.90601 34.9695 2.90433 34.8 2.90433C26.3581 2.90433 18.8893 7.06739 14.3335 13.4466C13.4656 13.1912 12.5479 13.0543 11.6 13.0543C6.26123 13.0543 1.93332 17.3822 1.93332 22.721C1.93332 23.5218 2.58251 24.171 3.38332 24.171H11.1212ZM25.1333 18.371C27.2688 18.371 29 16.6398 29 14.5043C29 12.3688 27.2688 10.6377 25.1333 10.6377C22.9978 10.6377 21.2666 12.3688 21.2666 14.5043C21.2666 16.6398 22.9978 18.371 25.1333 18.371Z" fill="#FCCF51"/>
</svg>
