<svg width="151" height="95" viewBox="0 0 151 95" fill="none" xmlns="http://www.w3.org/2000/svg">
<path d="M142.997 94.3493C147.255 94.3493 150.707 90.5198 150.707 85.7958C150.707 81.0718 147.255 77.2422 142.997 77.2422C138.739 77.2422 135.287 81.0718 135.287 85.7958C135.287 90.5198 138.739 94.3493 142.997 94.3493Z" fill="#F26D6D"/>
<path d="M100.595 68.3349L101.184 65.029C102.503 57.684 105.984 55.0084 111.559 51.4066C115.942 48.5124 119.632 46.3127 120.523 41.3474C121.436 36.2792 120.014 32.3044 114.717 31.1339C108.297 29.706 104.897 34.1182 103.764 42.0421L90.6016 36.6523C93.574 22.7856 103.162 16.1994 117.215 19.3124C130.701 22.3096 136.669 31.687 134.425 44.216C132.794 53.3233 127.925 56.7578 121.321 60.6812C116.764 63.434 113.768 65.5693 113.005 69.8142L112.785 71.062L100.595 68.3606V68.3349ZM95.5402 91.1031L98.4201 75.0625L113.213 78.3427L110.333 94.3834L95.5402 91.1031Z" fill="#A7D9D0"/>
<path d="M30.016 24.0326L56.0579 1.57518C59.1556 -1.09368 63.6635 1.01541 64.1605 5.36369L68.4142 41.9986C68.9227 46.3599 65.0505 49.6927 61.4442 48.0133L31.1488 33.8358C27.5425 32.1564 26.9182 26.7014 30.016 24.0326Z" fill="#F2B263"/>
<path d="M53.4978 80.1836C45.1886 71.1866 45.2003 56.4912 53.5683 47.5199C61.6659 38.8438 74.7584 38.7925 82.9031 47.4172C84.3957 48.9959 85.6298 50.767 86.6052 52.6537C86.6052 52.6537 92.9165 61.2528 95.3846 86.9602C95.7372 90.5795 92.9517 93.6341 89.6375 93.2876C72.2081 91.4266 63.4524 87.0885 60.0441 85.0093C57.67 83.9056 55.437 82.3013 53.4978 80.1964V80.1836Z" fill="#F26D6D"/>
<path d="M0.107422 66.0954C0.107422 71.4139 5.15174 75.2911 7.39748 79.5893C9.71233 84.0278 10.2997 90.7749 14.3075 93.3385C18.1886 95.8256 23.7051 93.0834 28.5075 93.0834C33.31 93.0834 38.8264 95.8256 42.7075 93.3385C46.7153 90.7749 47.3027 84.0278 49.6175 79.5893C51.8633 75.2911 56.9076 71.4139 56.9076 66.0954C56.9076 60.7768 51.8633 56.8995 49.6175 52.6013C47.3027 48.1628 46.7153 41.4158 42.7075 38.8522C38.6997 36.2886 33.31 39.1073 28.5075 39.1073C23.7051 39.1073 18.1886 36.3651 14.3075 38.8522C10.2997 41.4158 9.71233 48.1628 7.39748 52.6013C5.15174 56.8995 0.107422 60.7768 0.107422 66.0954Z" fill="#A7D9D0"/>
</svg>
