<svg width="68" height="68" viewBox="0 0 68 68" fill="none" xmlns="http://www.w3.org/2000/svg">
<circle cx="33.7581" cy="33.7581" r="33.7581" fill="#FCCF51"/>
<circle cx="33.7577" cy="33.7577" r="25.0315" fill="#D39D1C"/>
<path fill-rule="evenodd" clip-rule="evenodd" d="M27.6888 37.0977C27.9741 37.4663 27.9065 37.9964 27.5378 38.2816C26.8711 38.7976 26.4443 39.6029 26.4443 40.5082C26.4443 40.6848 26.4605 40.8571 26.4913 41.0238C26.6581 41.0547 26.8304 41.0708 27.0069 41.0708C27.9123 41.0708 28.7176 40.6441 29.2335 39.9773C29.5188 39.6087 30.0489 39.5411 30.4175 39.8263C30.7861 40.1116 30.8537 40.6416 30.5685 41.0103C29.7466 42.0724 28.4567 42.7588 27.0069 42.7588C26.4894 42.7588 25.9905 42.671 25.5254 42.509C25.2821 42.4242 25.0909 42.233 25.0062 41.9897C24.8441 41.5247 24.7564 41.0258 24.7564 40.5082C24.7564 39.0584 25.4428 37.7685 26.5049 36.9467C26.8735 36.6614 27.4036 36.729 27.6888 37.0977Z" fill="#FCCF51"/>
<path fill-rule="evenodd" clip-rule="evenodd" d="M28.9788 36.0071C29.7156 36.9497 30.5655 37.7995 31.508 38.5363V43.0401C31.508 43.5062 31.8859 43.884 32.352 43.884C35.4593 43.884 37.9783 41.365 37.9783 38.2577C37.9783 37.706 37.8987 37.1718 37.75 36.6667C41.4629 34.015 43.886 29.6679 43.886 24.7544C43.886 24.6558 43.885 24.5574 43.883 24.4592C43.8741 24.0062 43.509 23.6411 43.056 23.6321C42.9578 23.6302 42.8594 23.6292 42.7607 23.6292C37.8472 23.6292 33.5001 26.0522 30.8485 29.7652C30.3433 29.6165 29.8092 29.5368 29.2575 29.5368C26.1501 29.5368 23.6311 32.0558 23.6311 35.1632C23.6311 35.6293 24.009 36.0071 24.4751 36.0071H28.9788ZM37.1344 32.6313C38.3773 32.6313 39.3849 31.6237 39.3849 30.3808C39.3849 29.1379 38.3773 28.1303 37.1344 28.1303C35.8914 28.1303 34.8838 29.1379 34.8838 30.3808C34.8838 31.6237 35.8914 32.6313 37.1344 32.6313Z" fill="#FCCF51"/>
</svg>
