<svg width="224" height="162" viewBox="0 0 224 162" fill="none" xmlns="http://www.w3.org/2000/svg">
<path d="M47.365 29.9274C50.4554 30.0157 53.6289 29.8963 56.4855 28.712C59.3422 27.5278 61.8405 25.0815 62.3235 22.0326C62.8066 18.9786 60.7186 15.5298 57.6438 15.1922C54.8131 14.8806 52.1226 17.3789 51.8266 20.2096C51.5305 23.0403 53.338 25.8502 55.8623 27.1643C58.3865 28.4783 61.4717 28.4368 64.157 27.5071C66.8422 26.5773 69.1847 24.8218 71.2311 22.8481" stroke="#1D2939" stroke-linecap="round" stroke-linejoin="round"/>
<path d="M95.4099 10.5645C95.4099 9.04264 94.5373 7.72338 93.27 7.07414C93.7114 5.71852 93.3946 4.17072 92.3143 3.09558C91.2391 2.02044 89.6913 1.70361 88.3357 2.1399C87.6865 0.872578 86.3724 0 84.8454 0C83.3184 0 82.0043 0.872578 81.3551 2.1399C79.9995 1.69841 78.4517 2.01524 77.3765 3.09558C76.3014 4.17072 75.9845 5.71852 76.4208 7.07414C75.1535 7.72338 74.2809 9.03744 74.2809 10.5645C74.2809 12.0863 75.1535 13.4055 76.4208 14.0548C76.0261 15.265 76.239 16.6258 77.0493 17.6698C76.7169 18.4437 76.0676 19.5032 74.8678 20.1161C74.551 20.2771 74.6809 20.755 75.034 20.729C76.3273 20.6355 77.9271 20.246 79.2256 19.0721C79.9267 19.2383 80.6643 19.2124 81.3551 18.989C82.0043 20.2563 83.3184 21.1289 84.8454 21.1289C86.3672 21.1289 87.6865 20.2563 88.3357 18.989C89.6913 19.4305 91.2391 19.1137 92.3143 18.0333C93.3894 16.9582 93.7062 15.4104 93.27 14.0548C94.5373 13.4055 95.4099 12.0915 95.4099 10.5645Z" fill="#F2B263"/>
<path d="M89.5771 12.6858C90.4119 12.6858 91.0886 12.0091 91.0886 11.1743C91.0886 10.3396 90.4119 9.6629 89.5771 9.6629C88.7424 9.6629 88.0657 10.3396 88.0657 11.1743C88.0657 12.0091 88.7424 12.6858 89.5771 12.6858Z" fill="#1D2939"/>
<path d="M84.7312 12.6858C85.5659 12.6858 86.2426 12.0091 86.2426 11.1743C86.2426 10.3396 85.5659 9.6629 84.7312 9.6629C83.8964 9.6629 83.2197 10.3396 83.2197 11.1743C83.2197 12.0091 83.8964 12.6858 84.7312 12.6858Z" fill="#1D2939"/>
<path d="M79.8903 12.6858C80.725 12.6858 81.4017 12.0091 81.4017 11.1743C81.4017 10.3396 80.725 9.6629 79.8903 9.6629C79.0555 9.6629 78.3788 10.3396 78.3788 11.1743C78.3788 12.0091 79.0555 12.6858 79.8903 12.6858Z" fill="#1D2939"/>
<path d="M214.984 157.085C217.628 157.085 219.772 154.941 219.772 152.297C219.772 149.652 217.628 147.508 214.984 147.508C212.339 147.508 210.195 149.652 210.195 152.297C210.195 154.941 212.339 157.085 214.984 157.085Z" fill="#F26D6D"/>
<path d="M108.627 146.458L108.892 145.118C109.484 142.147 111.047 141.072 113.556 139.612C115.53 138.438 117.181 137.555 117.581 135.545C117.981 133.535 117.353 131.894 114.969 131.416C112.086 130.84 110.554 132.621 110.045 135.826L104.134 133.65C105.469 128.045 109.78 125.386 116.096 126.643C122.157 127.853 124.837 131.645 123.829 136.704C123.097 140.381 120.905 141.773 117.94 143.352C115.893 144.463 114.548 145.326 114.205 147.04L114.106 147.543L108.632 146.453L108.627 146.458ZM106.357 155.651L107.65 149.169L114.299 150.494L113.005 156.976L106.357 155.651Z" fill="white"/>
<path d="M141.158 160.5L215.073 146.561C219.465 145.732 222.354 141.501 221.526 137.109L201.227 29.4766C200.399 25.0848 196.167 22.196 191.776 23.0243L117.86 36.964C113.468 37.7923 110.58 42.0239 111.408 46.4157L131.706 154.048C132.535 158.44 136.766 161.329 141.158 160.5Z" fill="white" stroke="#1D2939" stroke-linecap="round" stroke-linejoin="round"/>
<path d="M210.582 133.555L191.676 33.3081L121.686 46.5077L140.591 146.755L210.582 133.555Z" fill="#E4F2F0" stroke="#1D2939" stroke-linecap="round" stroke-linejoin="round"/>
<path d="M170.685 144.65L181.784 142.557C183.15 142.298 184.464 143.196 184.724 144.562C184.984 145.928 184.085 147.242 182.719 147.502L171.62 149.595C170.254 149.855 168.94 148.956 168.68 147.59C168.42 146.224 169.319 144.91 170.685 144.65Z" fill="#E4F2F0" stroke="#1D2939" stroke-linecap="round" stroke-linejoin="round"/>
<path d="M148.356 36.2075L163.086 33.4339" stroke="#1D2939" stroke-linecap="round" stroke-linejoin="round"/>
<path d="M151.482 67.3827L136.02 70.0212C133.345 70.4783 131.548 73.0181 132.005 75.693C132.462 78.3679 135.002 80.165 137.677 79.7079C137.677 79.7079 139.749 80.4351 138.181 82.6581C140.367 81.9257 141.178 79.9053 140.658 79.1989L153.139 77.0694C155.814 76.6123 157.611 74.0725 157.154 71.3976C156.697 68.7227 154.157 66.9256 151.482 67.3827Z" stroke="#1D2939" stroke-linecap="round" stroke-linejoin="round"/>
<path d="M135.656 72.9708L152.484 70.1037" stroke="#1D2939" stroke-linecap="round" stroke-linejoin="round"/>
<path d="M135.977 74.8658L152.805 71.9987" stroke="#1D2939" stroke-linecap="round" stroke-linejoin="round"/>
<path d="M136.3 76.7627L153.128 73.8957" stroke="#1D2939" stroke-linecap="round" stroke-linejoin="round"/>
<path d="M168.716 45.0512L184.178 42.4127C186.853 41.9557 189.393 43.7528 189.85 46.4276C190.307 49.1025 188.51 51.6424 185.835 52.0994C185.835 52.0994 184.121 53.4758 186.339 55.0496C184.032 55.0807 182.599 53.4498 182.853 52.6084L170.372 54.7379C167.697 55.195 165.158 53.3979 164.701 50.723C164.244 48.0482 166.041 45.5083 168.716 45.0512Z" stroke="#1D2939" stroke-linecap="round" stroke-linejoin="round"/>
<path d="M185.497 45.0762L168.669 47.9485" stroke="#1D2939" stroke-linecap="round" stroke-linejoin="round"/>
<path d="M185.824 46.9712L168.99 49.8434" stroke="#1D2939" stroke-linecap="round" stroke-linejoin="round"/>
<path d="M186.146 48.8682L169.318 51.7404" stroke="#1D2939" stroke-linecap="round" stroke-linejoin="round"/>
<path d="M180.277 102.617C181.534 102.404 181.243 100.706 182.505 100.493C183.762 100.28 184.053 101.973 185.31 101.76C186.567 101.547 186.281 99.8488 187.538 99.6358C188.795 99.4229 189.086 101.116 190.343 100.903C191.6 100.69 191.314 98.9917 192.571 98.7788" stroke="#1D2939" stroke-linecap="round" stroke-linejoin="round"/>
<path d="M168.825 105.038C170.082 104.825 169.791 103.126 171.053 102.913C172.31 102.7 172.601 104.394 173.858 104.181C175.115 103.968 174.829 102.269 176.086 102.056C177.343 101.843 177.634 103.537 178.891 103.324C180.148 103.111 179.862 101.412 181.119 101.199" stroke="#1D2939" stroke-linecap="round" stroke-linejoin="round"/>
<path d="M158.389 107.225C159.646 107.012 159.355 105.313 160.618 105.1C161.875 104.887 162.165 106.581 163.422 106.368C164.679 106.155 164.394 104.456 165.651 104.243C166.907 104.03 167.198 105.724 168.455 105.511C169.712 105.298 169.427 103.599 170.683 103.386" stroke="#1D2939" stroke-linecap="round" stroke-linejoin="round"/>
<path d="M147.072 109.619C148.329 109.406 148.038 107.707 149.3 107.494C150.557 107.282 150.848 108.975 152.105 108.762C153.362 108.549 153.076 106.85 154.333 106.637C155.59 106.425 155.881 108.118 157.138 107.905C158.395 107.692 158.109 105.993 159.366 105.78" stroke="#1D2939" stroke-linecap="round" stroke-linejoin="round"/>
<path d="M181.295 110.106C182.552 109.893 182.261 108.195 183.523 107.982C184.78 107.769 185.071 109.462 186.328 109.249C187.585 109.036 187.299 107.338 188.556 107.125C189.813 106.912 190.104 108.605 191.361 108.392C192.618 108.179 192.332 106.481 193.589 106.268" stroke="#1D2939" stroke-linecap="round" stroke-linejoin="round"/>
<path d="M169.838 112.527C171.095 112.314 170.804 110.615 172.066 110.402C173.323 110.189 173.614 111.883 174.871 111.67C176.128 111.457 175.842 109.758 177.099 109.545C178.356 109.332 178.647 111.026 179.904 110.813C181.161 110.6 180.875 108.901 182.132 108.688" stroke="#1D2939" stroke-linecap="round" stroke-linejoin="round"/>
<path d="M159.409 114.714C160.666 114.501 160.375 112.802 161.637 112.589C162.894 112.377 163.185 114.07 164.442 113.857C165.699 113.644 165.413 111.945 166.67 111.732C167.927 111.52 168.218 113.213 169.475 113C170.731 112.787 170.446 111.088 171.703 110.875" stroke="#1D2939" stroke-linecap="round" stroke-linejoin="round"/>
<path d="M148.085 117.108C149.342 116.895 149.052 115.196 150.314 114.984C151.571 114.771 151.861 116.464 153.118 116.251C154.375 116.038 154.09 114.339 155.347 114.127C156.604 113.914 156.894 115.607 158.151 115.394C159.408 115.181 159.123 113.482 160.38 113.27" stroke="#1D2939" stroke-linecap="round" stroke-linejoin="round"/>
<path d="M183.378 116.464C184.635 116.251 184.344 114.552 185.606 114.339C186.863 114.126 187.154 115.82 188.411 115.607C189.668 115.394 189.382 113.695 190.639 113.482C191.896 113.269 192.187 114.963 193.444 114.75C194.7 114.537 194.415 112.838 195.672 112.625" stroke="#1D2939" stroke-linecap="round" stroke-linejoin="round"/>
<path d="M171.926 118.884C173.183 118.671 172.892 116.973 174.154 116.76C175.411 116.547 175.702 118.24 176.959 118.027C178.216 117.814 177.93 116.116 179.187 115.903C180.444 115.69 180.735 117.383 181.992 117.17C183.248 116.957 182.963 115.259 184.22 115.046" stroke="#1D2939" stroke-linecap="round" stroke-linejoin="round"/>
<path d="M161.49 121.065C162.747 120.852 162.456 119.154 163.718 118.941C164.975 118.728 165.266 120.421 166.523 120.208C167.78 119.995 167.494 118.297 168.751 118.084C170.008 117.871 170.299 119.564 171.556 119.351C172.813 119.138 172.527 117.44 173.784 117.227" stroke="#1D2939" stroke-linecap="round" stroke-linejoin="round"/>
<path d="M150.173 123.465C151.43 123.252 151.139 121.554 152.401 121.341C153.658 121.128 153.949 122.821 155.206 122.608C156.463 122.395 156.177 120.697 157.434 120.484C158.691 120.271 158.982 121.964 160.239 121.751C161.496 121.538 161.21 119.84 162.467 119.627" stroke="#1D2939" stroke-linecap="round" stroke-linejoin="round"/>
<path d="M175.499 78.9583L190.962 76.3198C193.637 75.8627 196.176 77.6598 196.633 80.3347C197.091 83.0096 195.293 85.5494 192.619 86.0064C192.619 86.0064 190.905 87.3829 193.122 88.9566C190.816 88.9878 189.383 87.3569 189.637 86.5155L177.156 88.645C174.481 89.102 171.942 87.3049 171.484 84.6301C171.027 81.9552 172.824 79.4154 175.499 78.9583Z" stroke="#1D2939" stroke-linecap="round" stroke-linejoin="round"/>
<path d="M192.286 78.9836L175.452 81.8559" stroke="#1D2939" stroke-linecap="round" stroke-linejoin="round"/>
<path d="M192.608 80.8786L175.78 83.7509" stroke="#1D2939" stroke-linecap="round" stroke-linejoin="round"/>
<path d="M192.93 82.7756L176.101 85.6478" stroke="#1D2939" stroke-linecap="round" stroke-linejoin="round"/>
<path d="M79.9303 128.664L91.6478 119.694C93.0398 118.629 95.0654 119.471 95.2888 121.206L97.2001 135.837C97.4287 137.577 95.6887 138.906 94.0682 138.236L80.4393 132.575C78.8188 131.905 78.5383 129.729 79.9303 128.664Z" fill="#F2B263"/>
<path d="M90.7709 151.492C87.0988 147.851 87.0988 141.898 90.8021 138.263C94.3807 134.746 100.172 134.731 103.777 138.221C104.436 138.86 104.982 139.577 105.413 140.34C105.413 140.34 108.202 143.82 109.298 154.229C109.453 155.694 108.223 156.935 106.753 156.789C99.0448 156.036 95.1702 154.281 93.6639 153.434C92.6148 152.988 91.6279 152.338 90.7709 151.486V151.492Z" fill="#F26D6D"/>
<path d="M66.6444 145.612C66.6444 147.783 68.9194 149.362 69.9322 151.112C70.9762 152.92 71.2411 155.667 73.0485 156.717C74.7989 157.729 77.292 156.613 79.4579 156.613C81.6289 156.613 84.1168 157.729 85.8672 156.717C87.6747 155.673 87.9396 152.92 88.9835 151.112C89.9963 149.362 92.2713 147.783 92.2713 145.612C92.2713 143.441 89.9963 141.862 88.9835 140.112C87.9707 138.361 87.6747 135.557 85.8672 134.507C84.1168 133.495 81.6237 134.611 79.4579 134.611C77.2868 134.611 74.7989 133.495 73.0485 134.507C71.2982 135.52 70.9762 138.304 69.9322 140.112C68.9194 141.862 66.6444 143.441 66.6444 145.612Z" fill="#42225D"/>
<path d="M4.16679 143.914C4.44727 145.82 6.37941 147.326 8.29597 147.129C9.57887 146.999 10.7527 146.215 12.046 146.225C13.2821 146.235 14.3885 146.963 15.4065 147.664C17.2555 148.936 19.1097 150.209 20.9588 151.481C21.8002 152.063 22.6624 152.655 23.2545 153.486C23.8518 154.317 24.1375 155.444 23.7168 156.379C22.974 158.031 20.7043 158.14 18.9072 157.932C14.6378 157.439 10.4047 156.602 6.27034 155.434C4.42649 154.914 2.42683 154.187 1.50231 152.51C0.780349 151.196 0.89981 149.549 1.46075 148.162C2.0217 146.77 2.97738 145.586 3.91749 144.418" stroke="#1D2939" stroke-linecap="round" stroke-linejoin="round"/>
<path d="M4.65503 142.583C5.24714 141.528 5.83405 140.474 6.42616 139.42" stroke="#1D2939" stroke-linecap="round" stroke-linejoin="round"/>
<path d="M12.4723 145.32C12.8411 144.047 13.215 142.78 13.5838 141.507" stroke="#1D2939" stroke-linecap="round" stroke-linejoin="round"/>
<path d="M6.39481 137.737C9.85916 138.531 13.3183 139.326 16.7827 140.121C23.3634 129.385 29.9701 118.597 34.9251 107.02C39.8801 95.4425 43.0899 83.3302 42.6848 70.7401" stroke="#1D2939" stroke-linecap="round" stroke-linejoin="round"/>
<path d="M22.8391 75.6175C22.6366 80.0791 20.0448 84.2707 20.3512 88.7271C20.4915 90.7371 21.2394 92.7056 22.4704 94.3001" stroke="#1D2939" stroke-linecap="round" stroke-linejoin="round"/>
<path d="M21.1508 92.8772C19.3848 108.282 14.3207 123.303 6.39481 136.631" stroke="#1D2939" stroke-linecap="round" stroke-linejoin="round"/>
<path d="M33.949 111.757C39.304 120.592 35.6578 132.476 39.9168 141.887C43.3708 141.093 46.83 140.303 50.2839 139.509C48.4868 122.498 45.0329 101.338 41.7399 84.5568" stroke="#1D2939" stroke-linecap="round" stroke-linejoin="round"/>
<path d="M50.3353 139.949C51.2442 141.694 52.148 143.434 53.0569 145.18" stroke="#1D2939" stroke-linecap="round" stroke-linejoin="round"/>
<path d="M44.7163 141.976C45.4486 143.836 46.1758 145.69 46.9081 147.549" stroke="#1D2939" stroke-linecap="round" stroke-linejoin="round"/>
<path d="M46.7624 147.814C47.796 148.77 49.3334 149.154 50.6942 148.796C52.0602 148.437 53.2081 147.357 53.6444 146.012" stroke="#1D2939" stroke-linecap="round" stroke-linejoin="round"/>
<path d="M53.5295 146.011C56.7497 145.896 59.97 145.787 63.1902 145.673C64.2238 145.637 65.2886 145.606 66.2546 145.974C67.2207 146.343 68.0673 147.221 68.0725 148.255C68.0777 149.486 66.9766 150.4 65.943 151.07C60.7335 154.451 54.6825 156.528 48.4966 157.053C47.7538 154.259 47.0111 151.459 46.2684 148.665" stroke="#1D2939" stroke-linecap="round" stroke-linejoin="round"/>
<path d="M22.5792 58.7739C24.3451 63.6094 26.4902 68.8864 31.1076 71.1614C34.6914 72.9273 39.0543 72.4079 42.6849 70.7459C46.3155 69.0786 49.3591 66.3934 52.3456 63.7393C53.6753 62.555 55.062 61.2981 55.6438 59.6205C56.2307 57.9376 55.6853 55.7198 54.0284 55.0654C52.6832 54.5304 51.1874 55.1745 49.8837 55.8029C46.5907 57.3975 43.2978 58.9868 40.01 60.5813C37.5065 56.9767 35.0083 53.3722 32.5048 49.7676" stroke="#1D2939" stroke-linecap="round" stroke-linejoin="round"/>
<path d="M55.0778 54.0007C56.0438 53.4969 57.0671 52.9827 58.1578 53.0086C59.2485 53.0346 60.4067 53.8033 60.4535 54.894C60.4847 55.5952 60.0484 56.26 59.4718 56.6652C58.8953 57.0703 58.1889 57.2417 57.493 57.356" stroke="#1D2939" stroke-linecap="round" stroke-linejoin="round"/>
<path d="M31.9904 72.2319C30.6036 73.0682 29.1909 73.9096 27.6327 74.3459C26.0745 74.7822 24.3138 74.7562 22.927 73.92C21.6285 73.1357 20.8183 71.7541 20.1794 70.3725C18.0187 65.698 17.276 60.3794 18.0759 55.2893C18.8757 50.1993 21.2078 45.3637 24.6929 41.5721C25.8927 40.2684 27.5029 38.9959 29.248 39.3076C30.8581 39.5932 31.9541 41.1359 33.4811 41.7176C34.6497 42.1642 36.0365 41.9825 37.0493 41.2553" stroke="#1D2939" stroke-linecap="round" stroke-linejoin="round"/>
<path d="M37.0441 41.2503C40.1189 46.6364 42.6535 51.8252 44.0559 57.8657" stroke="#1D2939" stroke-linecap="round" stroke-linejoin="round"/>
<path d="M59.2948 53.3039L65.5431 49.4085L66.6027 51.3562L60.453 54.8933L59.2948 53.3039Z" stroke="#1D2939" stroke-linecap="round" stroke-linejoin="round"/>
<path d="M30.0218 22.4319C29.3725 27.7246 30.7229 33.2353 33.7354 37.6346C29.2167 38.3565 24.6928 39.0785 20.1741 39.8056L19.7118 39.8524C19.2444 36.1024 18.7821 32.2952 19.3171 28.5556C19.8468 24.8107 21.4985 21.0763 24.5318 18.8169C27.5598 16.5576 32.1097 16.1577 35.0703 18.5105L35.8857 18.9624C36.5557 20.666 36.3584 22.6864 35.3819 24.2342C34.286 25.9638 32.3902 26.987 30.5775 27.9323" stroke="#1D2939" stroke-linecap="round" stroke-linejoin="round"/>
<path d="M21.972 80.2353H27.9086C27.9086 80.2353 29.8356 90.2024 20.3515 88.7325" stroke="#1D2939" stroke-linecap="round" stroke-linejoin="round"/>
<path d="M36.6708 20.8844C38.1095 22.3024 39.569 23.7463 40.5714 25.507C41.5738 27.2626 42.0828 29.4025 41.4855 31.3346C40.8882 33.2668 38.9924 34.8509 36.9772 34.6639" stroke="#1D2939" stroke-linecap="round" stroke-linejoin="round"/>
<path d="M37.4914 35.2144C37.5174 37.1466 37.5382 39.0787 37.5642 41.0108" stroke="#1D2939" stroke-linecap="round" stroke-linejoin="round"/>
</svg>
